<svg xmlns="http://www.w3.org/2000/svg" width="100%" height="auto" viewBox="0 0 1024 559" version="1.1">
	<path d="M 498.698 122.157 C 496.596 122.747, 492.683 125.296, 489.944 127.862 C 485.357 132.157, 483.357 135.942, 462.916 179 C 450.775 204.575, 440.383 226.738, 439.823 228.250 C 439.263 229.762, 438.511 230.993, 438.152 230.985 C 437.793 230.976, 431.875 220.791, 425 208.350 C 418.125 195.909, 410.796 183.791, 408.714 181.421 C 406.632 179.051, 402.357 175.850, 399.214 174.306 L 393.500 171.500 369.250 171.186 C 355.913 171.013, 345 171.153, 345 171.498 C 345 171.842, 364.878 207.871, 389.173 251.562 L 433.345 331 441.161 331 L 448.978 331 474.409 280.201 C 496.605 235.865, 500.412 228.875, 504.330 225.263 C 512.108 218.094, 520.812 218.458, 527.466 226.231 C 531.462 230.900, 534.136 238.437, 536.402 251.419 C 537.212 256.060, 538.562 261.186, 539.402 262.810 C 542.383 268.576, 549.895 272.978, 556.782 272.994 C 559.944 273.002, 566.006 270.340, 568.834 267.702 C 574.462 262.452, 574.999 259.811, 575.014 237.290 C 575.021 225.855, 575.300 215.483, 575.633 214.239 C 576.328 211.645, 580.499 210.195, 582.905 211.710 C 584.304 212.592, 584.562 217.317, 585 250.108 L 585.500 287.500 588.241 292.163 C 596.245 305.779, 615.620 304.852, 622.120 290.541 C 623.838 286.760, 623.957 282.473, 623.978 223.950 C 623.995 176.658, 624.293 161.107, 625.200 160.200 C 625.860 159.540, 627.570 159, 629 159 C 630.430 159, 632.140 159.540, 632.800 160.200 C 633.698 161.098, 634 172.689, 634 206.200 L 634 251 640.893 251 L 647.786 251 648.150 228.250 C 648.500 206.372, 648.609 205.308, 651.007 200.500 C 654.812 192.870, 656.845 193.542, 660.076 203.500 C 663.347 213.581, 664.994 216.697, 669.168 220.707 C 674.538 225.866, 679.308 227, 695.626 227 L 710 227 710 219.941 C 710 215.520, 709.629 213.111, 709.006 213.496 C 708.460 213.834, 701.931 213.795, 694.497 213.409 C 678.110 212.559, 677.298 212.026, 673.491 199.600 C 672.126 195.145, 670.127 190.059, 669.049 188.299 C 665.670 182.781, 658.835 180.501, 651.250 182.362 L 648 183.159 648 172.229 C 648 156.680, 645.547 150.895, 637.249 146.878 C 628.098 142.449, 616.437 146.334, 612.121 155.250 C 610.029 159.571, 610 160.491, 610 221.816 C 610 282.667, 609.957 284.043, 608 286 C 605.535 288.465, 603.790 288.531, 601.713 286.235 C 600.322 284.699, 600.075 279.674, 599.808 247.485 C 599.467 206.481, 599.605 207.372, 592.637 201.254 C 583.078 192.861, 569.335 195.666, 563.597 207.182 C 561.042 212.308, 561 212.742, 561 233.996 C 561 256.836, 560.773 258, 556.323 258 C 553.179 258, 551.458 254.764, 550.142 246.382 C 546.777 224.946, 537.080 210.535, 523.559 206.876 C 516.961 205.090, 507.108 206.272, 501.033 209.579 C 491.357 214.845, 488.839 218.854, 464.296 268.088 C 451.758 293.237, 441.275 313.855, 441 313.905 C 440.602 313.977, 388.791 221.262, 372.784 191.832 L 369.068 185 378.337 185 C 386.190 185, 388.364 185.377, 392.554 187.468 C 398.674 190.521, 398.826 190.755, 421.065 231.236 C 430.654 248.690, 438.740 262.978, 439.034 262.986 C 439.328 262.993, 444.589 252.313, 450.724 239.250 C 456.860 226.188, 469.799 198.625, 479.477 178 C 489.155 157.375, 498.182 139.385, 499.537 138.023 C 502.699 134.843, 509.076 134.584, 511.870 137.523 C 512.904 138.610, 518.809 146.925, 524.992 156 C 539.375 177.110, 540.208 178, 545.603 178 C 549.500 178, 550.257 177.531, 555.239 172.025 L 560.646 166.050 567.822 174.916 L 574.998 183.781 582.249 184.168 C 586.263 184.381, 590.959 185.293, 592.767 186.209 C 594.564 187.119, 595.790 187.469, 595.492 186.986 C 593 182.955, 567.314 152.229, 565.646 151.285 C 564.466 150.617, 561.942 150.055, 560.037 150.035 C 557.106 150.005, 555.756 150.865, 551.250 155.630 C 548.322 158.726, 545.804 161.089, 545.654 160.880 C 545.505 160.671, 540.742 153.750, 535.070 145.500 C 529.398 137.250, 523.799 129.444, 522.629 128.153 C 517.572 122.577, 506.814 119.882, 498.698 122.157 M 305.779 365.709 C 306.270 366.694, 313.833 383.374, 322.586 402.776 L 338.500 438.052 345.931 437.776 L 353.361 437.500 369.681 401.643 C 378.656 381.922, 386 365.384, 386 364.893 C 386 364.402, 382.669 364, 378.598 364 C 371.435 364, 371.163 364.089, 370.182 366.750 C 369.624 368.262, 363.974 380.948, 357.626 394.940 C 348.903 414.163, 345.901 419.906, 345.340 418.440 C 344.931 417.373, 339.328 404.800, 332.890 390.500 L 321.183 364.500 313.034 364.209 C 305.487 363.939, 304.951 364.049, 305.779 365.709 M 414 401 L 414 438 421 438 L 428 438 428 401 L 428 364 421 364 L 414 364 414 401 M 465 401.087 L 465 438.174 490.750 437.741 C 517.401 437.294, 520.998 436.798, 527.118 432.731 C 537.794 425.637, 537.087 408.340, 525.847 401.637 L 521.842 399.249 524.798 397.144 C 534.022 390.576, 532.727 374.367, 522.511 368.501 C 516.146 364.847, 509.359 364, 486.451 364 L 465 364 465 401.087 M 566 401 L 566 438 596 438 L 626 438 626 432 L 626 426 603.500 426 L 581 426 581 416 L 581 406 600.050 406 L 619.100 406 618.800 400.411 L 618.500 394.823 599.750 394.950 L 581 395.078 581 385.539 L 581 376 602.500 376 L 624 376 624 370 L 624 364 595 364 L 566 364 566 401 M 654 369.980 L 654 375.961 675.618 376.230 L 697.236 376.500 675.154 402 L 653.072 427.500 653.036 432.750 L 653 438 686 438 L 719 438 719 432 L 719 426 696 426 C 683.350 426, 673 425.770, 673 425.488 C 673 425.206, 682.788 413.696, 694.750 399.909 C 715.746 375.711, 716.518 374.669, 717.033 369.870 C 717.325 367.136, 717.363 364.696, 717.116 364.449 C 716.869 364.202, 702.567 364, 685.333 364 L 654 364 654 369.980 M 479.659 385.184 L 479.819 394.500 491.159 394.818 C 504.461 395.192, 512.322 393.807, 514.492 390.707 C 516.917 387.246, 516.417 381.740, 513.422 378.924 C 510.956 376.604, 510.170 376.486, 495.172 376.184 L 479.500 375.868 479.659 385.184 M 479.500 415.920 L 479.500 426 495.500 425.998 C 508.729 425.997, 512.106 425.694, 515 424.248 C 521.225 421.139, 521.415 412.286, 515.342 408.302 C 513.036 406.790, 509.936 406.447, 496.047 406.170 L 479.500 405.839 479.500 415.920" stroke="none" fill="black" fill-rule="evenodd"/>
</svg>